<svg xmlns="http://www.w3.org/2000/svg" version="1.0" width="981.333" height="429.333" viewBox="0 0 736 322"><g stroke="none" stroke-width="0"><path d="M121.4 18.9c-3.4 1.5-9.1 7.9-11.6 13-1.2 2.5-2.4 7.1-2.6 10.1-.4 4.9-.1 6 2.3 8.8 4.8 5.7 14.4 8.9 21.1 7 7.1-1.9 14.1-11.2 15.8-21.1 1-5.4-2.1-11.8-7.4-15.3-4.5-3-13.5-4.2-17.6-2.5zm6.5 12.1c5 2.5 9.8 7.2 10.6 10.1.3 1.4.1 3.8-.5 5.3-.9 2.6-1.4 2.8-4.5 2.3-4.8-.8-10.2-3.5-14-7.2-3.7-3.4-5.1-7.1-4.1-11.1.7-2.5 1-2.6 4.7-2 2.3.4 5.8 1.5 7.8 2.6zM610.8 42c-9.7 5.2-15.1 20.6-9.7 28.1 2.4 3.5 6 5.5 12.3 6.9 11.1 2.5 20.1-3.9 23.6-16.8 2-7.7-1.7-13.9-11-18.1-5.6-2.6-10.4-2.6-15.2-.1zm8.6 10.8c6.1 3.3 9.9 8.1 9.4 11.9-.4 3.4-2.4 3.9-8.6 2.2-8.6-2.4-14.8-10.5-12.6-16.4.8-2.1 5.1-1.3 11.8 2.3z"/><path d="M205.5 44.1c-6.5 4.1-8.6 4.8-33.1 10.9-25.5 6.3-32.4 9-36.3 13.9-4.2 5.3-7.1 11.6-8.5 18.2l-1.2 5.8-5.4-8.7c-10.5-16.9-17.3-24.3-25.4-27.7-5.2-2.2-7-1.9-10.9 2.1-6.7 6.9-10.1 18.3-4.6 15.3 2.9-1.5 9.8-.5 15.2 2.2 7.4 3.8 12.9 8.1 23.5 18.2 6.9 6.7 10.8 9.7 11.8 9.3.9-.3 1.7-.6 1.8-.6.1 0 0-3.8-.2-8.5-.4-6.7-.1-9 1.2-11 2.4-3.7 10.3-7.2 20.3-9 16.4-3 21.8-4.5 30-8.4 14.9-7.2 28.3-17.9 28.3-22.8 0-3-.6-2.9-6.5.8zM317.4 46.8c-6.8 4.3-15.9 20.3-17 29.9-.6 4.8-.5 5.2 3.2 9.3 4.5 5 10.3 7.9 15.6 8 2.9 0 4.5-.7 7.1-3.4 3.4-3.3 7.7-11.3 7.7-14.1 0-1.9-.4-1.9-4 0-2.5 1.3-3.4 1.3-8.1-.1-5.1-1.5-11.9-6.8-11.9-9.3 0-2.3 4.9-6.1 7.7-6.1 5.2 0 14.6 3 22.6 7.3 6.6 3.5 10.4 6.7 23.5 20 14.4 14.5 17.9 17.1 18.9 14.1.2-.6-3.5-6-8.2-12-4.7-6-10.8-15.4-13.6-20.9-10.5-20.3-14.6-23.6-30.3-24.2-8.7-.4-10.5-.2-13.2 1.5zM473.8 54.2c-2.5 2-10.8 15.1-10.8 17 0 1.1.8 1.8 2 1.8 1.1 0 2-.5 2-1 0-1.5 8.6-1.2 15.9.6 14.4 3.5 31.5 13.3 44.6 25.6 5.6 5.3 7.9 6.8 8.7 6 1.3-1.3-.8-4.4-12.8-20.2-12.5-16.3-22.9-25.2-34-29.1-6.1-2.2-13.3-2.5-15.6-.7zM580 73.1c0 1.6 8.6 13.3 13.6 18.5 2.5 2.5 6.9 5.7 10 7.1 4.8 2.2 6.6 2.5 13.7 2.1 13.1-.5 21-5.7 32.1-20.7 5.9-8 4.9-10.3-2-4.3-8 7.2-19.3 11.2-30.7 11.2-6.9 0-17.3-3.8-27.4-10-8.7-5.3-9.3-5.6-9.3-3.9zM77.3 110.2C74 114 67 124.5 67 125.8c0 .7 1.2 1.1 3.3 1 3-.3 3.2-.1 3.1 2.7 0 1.6-1.3 7-2.8 12-6.6 21.7-3.3 40 9.5 52 12.8 11.9 28.5 12 40.4 0 5.8-5.7 10.5-15.6 11.2-23.3.4-4.9.1-6.4-2.4-11.2-3.4-6.5-9.8-11-16.7-11.7l-4.6-.6 2.2-3.1c4.3-6.1 9.2-11.6 10.4-11.6 2.7 0 21.8 27.8 43 62.3 6 9.8 11.7 18.3 12.7 18.9 4.6 2.5 4.6 2.3 4.7-39.3 0-41.2.3-43.8 4.9-57.3 3-8.6 3-8.6-4-8.6h-6.1l-8.4 8.2c-9 8.8-10.4 11.4-5.5 10.3 2.8-.6 3-.4 4.1 3.7 2.1 7.5 3.8 16.9 6 31.4 2.1 14.8 3.8 38.4 2.7 38.4-1.7 0-11-21.3-16.1-36.8-6.1-18.7-9.5-26.3-15-33.5-2-2.6-3.6-4.9-3.6-5.2 0-.2 1.8-1.4 3.9-2.5 5.2-2.6 8.1-6.5 8.1-10.6V108h-37.9l-5.1 7.6c-2.9 4.1-4.9 8.2-4.6 9 .3.8 1.9 1.4 4 1.4h3.4l-3.4 6.2c-1.8 3.5-4.1 8.4-4.9 11-.9 2.5-2.7 5.3-4 6.2-2.1 1.4-6.5 9.2-8 14.3-.6 2.1-.4 2.1 7.3 1.6 18.3-1.3 31.4 8.6 22.5 16.9-4.1 3.8-9.4 5.1-18 4.6-15-1-23.8-8.6-26.4-22.8-2.7-15.4 3.6-34.2 13.6-40.7 6.9-4.5 10.5-8.7 10.5-12.3v-3H90.2c-10 0-11 .2-12.9 2.2zM209 115.5c-2.9 4.3-4.9 8.2-4.6 9 .4 1.2 2.7 1.5 10.5 1.5 9.3 0 10.2.2 13.1 2.6 3.2 2.7 7 9.2 7 11.9 0 1.3-.7 1.4-4.2.8-7.2-1.3-16-.8-19.6 1.1-8.9 4.6-15.5 13.9-16.8 23.3-1.4 10.8 4.9 22.3 14.1 25.9 6.2 2.3 15.1 1.6 19.9-1.7 4.9-3.2 10.2-11.2 11.8-17.5l1.3-5.2 11 9.5c6.1 5.2 15.9 13.8 21.9 19 6 5.1 11.6 9.3 12.4 9.1 1.4-.3 1.5-3.9 1.3-31.3-.3-34 .3-40 5-54.2 1.7-5.1 2.7-9.7 2.4-10.3-.3-.5-3.1-1-6.2-1h-5.5l-8.4 8.2c-8.6 8.4-10.4 11.5-6 10.4 1.4-.3 2.8 0 3.5.7 1.4 1.8 4.8 16.1 6.7 28.8 1.7 11.7 3.3 35.9 2.2 35.9-1 0-9.8-11.5-17.6-23-8.1-12-12.9-17.5-19-21.5l-4.3-2.8.3-9.1.3-9.1 5.2-2.5c2.8-1.4 6.3-3.6 7.7-4.9 2.8-2.6 5.1-8.4 4.1-10.1-.4-.6-8.7-1-22.4-1h-21.9l-5.2 7.5zm18.7 44c5.5 2.3 7.3 4.4 7.3 8.2 0 4.8-2.2 9.5-5.9 12.6-9.4 7.8-23.7 1.1-25.7-12.1-.8-5 .1-7.1 3.7-8.9 3.4-1.8 16.2-1.6 20.6.2zM318 115.6c-2.9 4.1-4.9 8.2-4.6 9 .4 1 2.4 1.4 7.5 1.4 8.4 0 8.6.2 9.5 11.5l.7 8-5.4 5.7c-8.5 8.9-15.5 24.6-19.1 42.5-2.9 14.2-3.6 25.5-3.6 56 0 29.8 0 30.3 2 30.3 1.1 0 2.3-.6 2.5-1.3.2-.6 1.3-13.1 2.4-27.7 3-38.7 5.7-53.9 12.2-69.7 3.3-7.8 8.5-15.7 9.8-14.9.4.3 1.1 2.8 1.4 5.6.8 6.6 4.5 14.6 8.6 18.7 9.3 9.3 25.4 5.2 32.7-8.2 8.5-15.6 5.2-34.1-7-40.4-6.4-3.3-16.1-4-23.9-1.7-3 .9-5.7 1.6-6 1.6-.9 0 1.4-7.4 3.4-10.6 2-3.4 3.7-4.4 12.4-7.5 7.6-2.8 13.5-8.4 13.5-12.8V108h-43.9l-5.1 7.6zm42.9 44.5c10.5 5.9 12 20.5 2.4 24.5-5.2 2.2-13.5 1.5-16.7-1.5-3.2-3-6.3-10.4-7.4-17.4-.8-5.1-.7-5.8 1.2-7.2 3.2-2.4 15.1-1.5 20.5 1.6zM399.5 116.2c-5.9 8.9-5.9 9.8.8 9.8 2 0 3.7.3 3.7.6s-1.6 4-3.6 8.2c-2 4.3-4.4 11.3-5.4 15.7-.9 4.4-2 8.7-2.3 9.5-1.7 4-3.7 10.4-3.7 12 0 1.7.3 1.7 6.3-.2 9.3-2.9 23.7-2.2 33.2 1.7 10.9 4.4 20 10.3 29.1 18.8 5 4.7 9 7.7 10.1 7.5 1.5-.3 1.6-2.7 1.4-27.8-.3-31 .6-39.8 5-53.1 1.7-4.9 2.7-9.4 2.3-10-.4-.7-2.8-1-6.6-.7-5.8.4-6 .5-13.8 8.3-8.3 8.2-9.9 11.2-5.6 10.1 1.4-.3 2.8 0 3.5.7 3.4 4.2 10.2 48.2 9.2 60.2-.1 1.4-7.8-6.4-12.3-12.5-8.9-12.1-17.5-18.7-28.3-21.5-6.8-1.7-16.7-2-19.6-.5-1.6.9-1.9.7-1.9-1.3 0-4.2 5.3-13.1 11.4-19.2 4.7-4.7 7.6-6.6 12.3-8.3 3.5-1.3 7.6-3.4 9.2-4.8 3.1-2.5 5.7-8.6 4.6-10.4-.4-.6-7-1-17-1H405l-5.5 8.2zM494.9 114.7c-5.9 9.1-5.8 10.7.6 11.3 2.8.3 4.9.9 4.8 1.5-1.3 5.4-8.3 20.9-11.7 26-4.3 6.1-6.2 10.2-5.4 11 .2.3 5.8-.5 12.4-1.6 24.7-4.3 42.1.6 50.2 14.1 4.7 8 7.5 17.9 14.2 51 3.3 16.2 6.4 29.8 6.9 30.3.6.6 1.7.7 2.6.3 1.9-.7 1.8-1.9-1.1-34.1-3.4-38.2-9.7-59.6-20.6-70.5-6.9-6.9-20.5-10.4-37.8-9.8-5.5.1-10 .2-10 0 0-1.7 4.7-8.6 7.5-11 5.2-4.6 8.2-5.9 18-7.6 14.2-2.5 22.5-7.9 22.5-14.7V108h-48.7l-4.4 6.7zM587.5 115.7c-2.7 4.2-5 8.2-5 8.7 0 .6 3 1.3 6.8 1.6l6.8.5-11 12.9c-8.8 10.4-11.4 14.2-13.1 19-1.1 3.3-2 6.3-2 6.7 0 .4 1.5.3 3.2-.2 5.9-1.6 14.8-1.1 19.7 1.3 2.5 1.2 8.6 6.1 13.7 11 13.6 12.9 16 11.7 7.3-3.5l-5.1-9 2-2.6c2.9-3.9 6-5.1 13.7-5.1 11 0 19.2 5.1 22.9 14.2 3.2 7.6 1.6 13.3-5.8 21.5l-4.8 5.3h-8.6c-6.6 0-9.5.5-12.8 2-5.2 2.6-12 9.7-14.4 15.3-3.3 7.5-3.4 10.6-.6 18.1 1.4 3.8 2.6 8.4 2.6 10.2 0 1.9.5 3.4 1.1 3.4 2 0 9.9-8.6 9.9-10.7 0-1.1-1.3-4.4-3-7.4-1.8-3.3-3-6.9-3-9.2 0-3.5.3-3.9 4.3-5.7 8.3-3.8 27-1.7 31.5 3.5 2.5 3 2.3 4.8-1.2 10.2-1.2 2-2.9 3.3-4.2 3.3-7.1 0-16.3 6.2-19.1 12.8-2 4.8-.9 5.4 5 3.1 9.6-3.9 23.7-.2 28.7 7.5l2 3.1-8.1 7.7c-4.4 4.3-7.8 8.2-7.5 8.6.3.5 2.9.3 5.8-.4 6.9-1.8 11.2-1.8 15.5.3 7.3 3.4 9.1 11.3 3.7 16-2 1.8-3.7 2.3-8.3 2.3-8.2 0-14.8-3.6-31.6-17.6-16.4-13.5-23-18.1-34.3-23.4-14.6-7.1-16.4-4.7-3.1 4.2 11 7.4 19.5 15.2 33.5 30.9 14 15.6 18.7 19.1 26.5 19.7 6.7.5 11.8-1.8 18.9-8.4 6.7-6.2 10.4-14.1 10.8-22.9.5-11-3.9-17.2-13-18.4l-4.3-.6-.7-5.9c-.9-7.4-4.8-14.2-9.3-16.3l-3.4-1.6 2.4-3.2c5.7-7.3 6.6-14.5 3-21.5-1.3-2.4-1.3-3 0-4 2.5-2.1 1.9-5-1-5-1.4 0-2.5-.1-2.5-.3 0-.2 2.1-2.5 4.6-5.3 9.4-10 12.4-21.1 8.9-33-2.2-7.8-10.5-16.2-18.4-18.9-13.3-4.4-29.7 2.4-36 15l-2.3 4.7-5.3-5.2c-2.8-2.8-6.7-5.7-8.6-6.3-1.9-.7-3.7-1.7-3.9-2.2-.6-1.3 16-13.8 22-16.6 2.5-1.2 8.3-2.8 13-3.6 14-2.4 22-7.6 22.3-14.5l.2-3.3-26-.2-26-.3-5 7.7z"/><path d="M472.2 206.1c-2.9 4.5-5.1 8.3-4.8 8.6.3.3 4.9.9 10.2 1.2 9.2.6 9.7.8 12.5 3.9 2.7 3 4.7 7.7 3.7 8.8-.3.2-2.1-.3-4.1-1.1-12-5-27.2 3.7-30.7 17.4-2.2 8.6 1.5 18.2 9.3 24.5 3.1 2.5 4.9 3.1 10.2 3.4 5.5.4 7 .1 10.8-2.1 5.4-3.2 6.4-4.3 9.1-11l2.2-5.4 7.1 5.6c21.5 17 32.7 25.1 33.6 24.2.6-.6.9-10.9.8-25.8-.2-27.8.7-36.9 5-49.4 1.6-4.8 2.9-9.1 2.9-9.8 0-.7-2.3-1.1-6.4-1.1h-6.5l-7.3 8.1c-4 4.4-7.3 8.6-7.3 9.2 0 .7 1.1 1.1 2.6.9 2.5-.3 2.8.1 4.8 7.8 1.2 4.4 2.9 11.9 3.7 16.7 1.7 9.6 3.3 33.3 2.2 33.3-1.5 0-10-10.7-15.3-19.2-8.3-13.5-12.7-19.1-16.9-21.3l-3.6-2v-7.8c0-6.8.3-8 2.3-9.7 9-7.8 10.7-9.8 10.7-12.9V198h-35.5l-5.3 8.1zm17.6 39.9c4.1 2.5 4.8 4.2 3.4 8.9-1.7 5.7-5.2 8.4-11.5 8.9-4.7.4-5.7.1-8.6-2.4-3.4-2.8-7-9.4-7.1-12.7 0-4.6 17.4-6.6 23.8-2.7z"/></g></svg>