<?xml version="1.0" encoding="UTF-8" standalone="no"?>
<svg
   width="0.71939927in"
   height="0.29369241in"
   viewBox="0 0 215.81978 88.107726"
   version="1.1"
   id="svg1"
   sodipodi:docname="mani.svg"
   inkscape:version="1.3 (0e150ed6c4, 2023-07-21)"
   xmlns:inkscape="http://www.inkscape.org/namespaces/inkscape"
   xmlns:sodipodi="http://sodipodi.sourceforge.net/DTD/sodipodi-0.dtd"
   xmlns="http://www.w3.org/2000/svg"
   xmlns:svg="http://www.w3.org/2000/svg">
  <defs
     id="defs1" />
  <sodipodi:namedview
     id="namedview1"
     pagecolor="#ffffff"
     bordercolor="#000000"
     borderopacity="0.25"
     inkscape:showpageshadow="2"
     inkscape:pageopacity="0.0"
     inkscape:pagecheckerboard="0"
     inkscape:deskcolor="#d1d1d1"
     inkscape:document-units="in"
     inkscape:zoom="4.5038969"
     inkscape:cx="23.313145"
     inkscape:cy="14.209917"
     inkscape:window-width="1896"
     inkscape:window-height="1014"
     inkscape:window-x="0"
     inkscape:window-y="0"
     inkscape:window-maximized="1"
     inkscape:current-layer="svg1" />
  <path
     id="Selection"
     fill="none"
     stroke="#000000"
     stroke-width="1"
     d="m 17.450123,0.50216375 c -9.4000005,3.21000005 -6.26,13.60000025 0.98,12.48000025 6.47,-0.99 9.4,-12.21000025 -0.98,-12.48000025 z m 2.99,9.24000005 c 0,0 -5,-5 -5,-5 3.65,1.16 3.84,1.35 5,5 z m 73,8.0000002 c 0,0 -7,-3 -7,-3 8.01,-0.46 13.809997,6.82 18.999997,12 0,0 -16.469997,0.99 -16.469997,0.99 0,0 -3.53,5.01 -3.53,5.01 4.7,1.5 5.62,1.04 9,5 -2.32,0.03 -4.78,-0.09 -6.96,0.85 -10.79,4.66 -2.09,20.54 6.82,14.4 1.86,-1.28 2.21,-2.39 3.14,-4.25 6.409997,12.51 3.929997,19.53 6.999997,32 0,0 2,0 2,0 1.42,-5.97 -0.95,-27.7 -2.92,-34 -2.36,-7.53 -4.799997,-5.2 -5.079997,-14 7.159997,-0.84 5.039997,-2.9 9.999997,-6 -1.95,-3.98 -8.449997,-14.97 -12.039997,-17.0200002 -6.45,-3.68 -13.95,0.6400002 -14.43,8.0000002 -0.27,4.25 4.11,6.5 7.36,5.38 2.67,-0.92 3.28,-3 4.11,-5.36 z M 195.49012,8.5221638 c -7.52,4.3300002 -5.1,12.2700002 2.91,10.9800002 7.04,-1.14 6.79,-12.3400002 -2.91,-10.9800002 z M 18.440123,19.742164 c 0,0 -2,0 -2,0 -3.2,-7.43 -10.4500005,-12.0400002 -14.0000005,-2 7.55,0.81 9.8000005,3.85 15.0000005,9 0,0 -6,3 -6,3 -2.8400005,-4.25 -8.2000005,-3.69 -10.2800005,1.06 -0.73999997,2.4 -1.00999997,15.32 0,17.94 0.43,2.09 1.68,3.98 3.47,5.26 10.7900005,7.74 23.4000005,-10.34 9.8100005,-15.26 0,0 3,-3 3,-3 0,0 13.52,21.71 13.52,21.71 0,0 3.48,2.29 3.48,2.29 0,-13.17 -1.2,-19.16 3,-32 -5.92,-1.33 -8.44,0.72 -11,6 4.39,4.31 4.52,11.12 5,17 0,0 -8,-19 -8,-19 0,0 3,-5 3,-5 0,0 -6,0 -6,0 1.22,-15.09 17.64,-3.78 20,-18.0000002 -4.14,0.93 -16.91,3.9300002 -19.58,6.5100002 -1.56,1.5 -1.75,2.58 -2.42,4.49 z m 131.999997,-2 c 12.77,-1.14 13.62,6.27 23,9 -3.28,-9.89 -19.05,-24.7400002 -23,-9 z m 45,-6 c 0,0 4,4 4,4 -2.59,-0.98 -3.72,-1.07 -4,-4 z m -10,6 c 4.27,12.52 18.24,12.1 23,0 0,0 -11,3.79 -11,3.79 z m -73,15 c 0,0 3,1 3,1 0,0 -4,14 -4,14 15.59,-2.79 14.13,2.96 25,8 0,0 1.18,-20 1.18,-20 0,0 1.82,-8 1.82,-8 -5.68,-1.15 -7.62,1.04 -10,6 3.26,4.07 3.59,9.93 4,15 -6.35,-6.29 -7.91,-8.24 -17,-9 7.52,-9.81 9.73,-5.63 11,-13 -7.9,0 -10.55,-1.36 -15,6 z m 38,0 c 0,0 3,1 3,1 0,0 -4,11 -4,11 13.78,-0.63 10.5,-2.25 23,6 0,0 -6,8 -6,8 3.79,4.06 3.88,7.67 4,13 0,0 -6.84,-12 -6.84,-12 0,0 2.84,-8 2.84,-8 -8.45,0 -12.27,-1.82 -17,6 0,0 8,1 8,1 -3.52,1.59 -7.58,2.72 -8.53,7.02 -1.59,7.27 8.24,11.59 12.53,3.98 0,0 12,8 12,8 0,0 1,-16 1,-16 0,0 3,0 3,0 -0.19,-8.61 -1.55,-19.91 -11,-23.15 -3.04,-1.04 -6.8,-0.85 -10,-0.85 6.47,-7.2 9.95,-2.42 14,-10 -3.48,-0.99 -13.39,-2.03 -16.47,0 -1.78,1.16 -2.61,3.18 -3.53,5 z m -104.999997,1 c 0,0 9,4 9,4 -2.19,0.13 -3.96,0.12 -5.98,1.17 -14.05,7.35 4.34,24.08 8.98,8.83 5.22,3.84 9.54,8.63 16,10 0,-12.23 -0.76,-16.75 2,-29 -5.68,-1.15 -7.62,1.04 -10,6 3.62,4.27 3.88,10.57 4,16 -4.57,-5.26 -10.42,-9.81 -11,-17 4.04,-1.29 4.31,-1.86 5,-6 -8.24,0 -13.55,-2.01 -18,6 z m 139.999997,0 c 0,0 3,1 3,1 0,0 -6,11 -6,11 9.95,0.26 8.08,3.28 16,7 0,0 -3,-8 -3,-8 6.98,-1.46 10.82,2.66 8.77,6.85 -1.64,3.34 -5.82,3 -8.67,4.6 -6.53,3.68 -4.57,8.87 -3.1,14.55 0,0 3,-2 3,-2 0,0 12,4 12,4 0,0 -5,6 -5,6 0,0 9,1 9,1 0,0 0,2 0,2 -10.85,1.86 -13.13,-10.52 -27,-12 2,3.38 5.17,5.34 8,8.04 3.11,2.97 7.83,8.72 12,9.63 6.11,1.34 12.08,-4.45 10.67,-10.62 -0.33,-1.45 -7.31,-10.6 -8.67,-12.05 3.2,-4.34 1.16,-5.27 2.21,-9.58 0.81,-3.34 4.11,-6.83 1.9,-12.4 -2.91,-7.25 -12.88,-8 -17.11,0 0,0 -4,-4.02 -4,-4.02 0,0 7,-3.34 7,-3.34 5.64,-2.1 6.6,-0.78 10,-6.65 -3.71,-1.06 -13.45,-1.92 -16.82,0 -2.08,1.21 -3,3.03 -4.18,4.99 z m -173.999997,-4 c -0.04,9.84 -1.01,7.05 -5.0000005,16 5.2300005,-1.22 6.0300005,-0.86 11.0000005,1 -3.26,5.78 -9.9900005,4.57 -12.2600005,-1.04 -2.66,-6.55 1.21,-12.22 6.2600005,-15.96 z m 83,15 c -0.22,0.94 -0.24,1.79 -0.73,2.71 -3.56,6.72 -11.47,-4.04 -2.25,-3.34 z m -40,0 c -1.18,7.03 -5.49,6.66 -7,0 z m 149.999997,17 c 0,0 0,2 0,2 0,0 -8,5 -8,5 0,0 -1,-8 -1,-8 z m -46,5 c -1.68,4.73 -3.82,3.83 -6,0 z" />
</svg>
